<svg width="541" height="531" viewBox="0 0 541 531" fill="none" xmlns="http://www.w3.org/2000/svg">
<g clip-path="url(#clip0_1_2103)">
<path d="M104.802 170.711H104.208L102.489 170.837C101.558 170.893 100.633 171.016 99.7204 171.204C99.1292 171.287 98.5427 171.401 97.9635 171.545L96.0043 172.089C92.6696 173.112 89.5234 174.67 86.6886 176.702C82.9432 179.421 79.8157 182.902 77.5119 186.916C76.1578 189.229 75.0803 191.694 74.3014 194.259C73.4829 197.047 73.0117 199.926 72.8983 202.829C72.823 204.355 72.8483 205.883 72.9742 207.405C72.9742 208.176 73.1891 208.947 73.2902 209.731C73.3752 210.521 73.5232 211.303 73.7326 212.069C74.8692 217.141 77.1754 221.878 80.4673 225.9C83.7592 229.923 87.9456 233.121 92.6926 235.238C96.1283 236.721 99.8107 237.548 103.55 237.678C107.413 237.89 111.279 237.336 114.926 236.047L116.039 235.63H116.19L116.317 235.706L132.256 243.796L131.788 244.2C130.082 238.916 128.438 233.797 126.846 228.88V228.691L126.985 228.552C130.851 224.657 133.722 219.888 135.353 214.648C136.83 209.857 137.261 204.805 136.617 199.834C136.044 195.415 134.623 191.149 132.433 187.269C130.545 183.937 128.109 180.946 125.228 178.421C122.851 176.424 120.22 174.749 117.404 173.441C115.273 172.522 113.053 171.823 110.78 171.356L108.252 170.939L106.42 170.8L105.307 170.724H104.928C105.054 170.71 105.181 170.71 105.307 170.724H106.432L108.265 170.8L110.793 171.166C113.094 171.6 115.344 172.273 117.505 173.176C120.37 174.468 123.048 176.139 125.468 178.143C128.402 180.656 130.889 183.648 132.825 186.991C135.077 190.913 136.541 195.237 137.135 199.72C137.832 204.768 137.431 209.908 135.959 214.787C134.318 220.136 131.403 225.007 127.465 228.981L127.541 228.653C129.134 233.57 130.79 238.689 132.509 243.96L132.749 244.731L132.028 244.364L116.089 236.287H116.367L115.23 236.704C111.512 238.013 107.574 238.579 103.639 238.373C99.8186 238.228 96.0591 237.37 92.5535 235.845C85.8666 232.981 80.3031 228.004 76.7156 221.676C75.0647 218.753 73.8591 215.6 73.1385 212.322C72.9412 211.536 72.7934 210.738 72.6961 209.933C72.595 209.137 72.4307 208.353 72.3927 207.569C72.0506 203.072 72.526 198.55 73.7958 194.221C74.5941 191.621 75.7017 189.126 77.0948 186.789C79.4536 182.739 82.6462 179.236 86.4611 176.513C89.3425 174.475 92.5416 172.929 95.9284 171.937L97.9129 171.432C98.497 171.296 99.0876 171.191 99.6825 171.116C100.605 170.945 101.539 170.843 102.476 170.812L104.208 170.749C104.405 170.722 104.603 170.71 104.802 170.711Z" fill="#1E40AF"/>
<path d="M112.006 200.188H109.668L104.612 193.084V188.42C104.612 188.42 100.997 188.193 101.427 194.298C101.856 200.403 101.427 198.848 101.427 198.848C101.427 198.848 93.7541 198.848 93.1221 199.543C92.4901 200.238 92.4522 207.645 92.3637 211.779C92.3152 212.775 92.6011 213.759 93.176 214.574C93.7508 215.39 94.5816 215.99 95.5363 216.279C95.8039 216.353 96.0802 216.391 96.3579 216.392C98.2792 216.392 108.05 214.838 108.05 214.838H112.082L112.006 200.188Z" fill="#1E40AF"/>
<path d="M118.693 198.937L117.252 214.913H113.258V199.265L118.693 198.937Z" fill="#1E40AF"/>
<path d="M512.96 43.8057H269.893V286.064H512.96V43.8057Z" fill="#F0F0F0"/>
<path d="M540.149 357.177H332.992V237.299H540.149V357.177ZM334.256 355.913H538.885V238.563H334.256V355.913Z" fill="#E0E0E0"/>
<path d="M497.413 301.22H360.736V305.227H497.413V301.22Z" fill="#F0F0F0"/>
<path d="M506.829 316.16H360.736V320.534H506.829V316.16Z" fill="#F0F0F0"/>
<path d="M506.829 331.277H360.736V335.651H506.829V331.277Z" fill="#F0F0F0"/>
<path d="M408.503 279.517H360.736V289.919H408.503V279.517Z" fill="#F0F0F0"/>
<path d="M539.517 237.931H333.662V257.017H539.517V237.931Z" fill="#E0E0E0"/>
<path d="M285.238 0.539062H79.3828V119.165H285.238V0.539062Z" fill="#E6E6E6"/>
<path d="M243.147 63.8398H106.471V67.8467H243.147V63.8398Z" fill="#F0F0F0"/>
<path d="M252.564 78.7803H106.471V83.1537H252.564V78.7803Z" fill="#F0F0F0"/>
<path d="M252.564 93.8984H106.471V98.2719H252.564V93.8984Z" fill="#F0F0F0"/>
<path d="M154.237 42.1377H106.471V52.5404H154.237V42.1377Z" fill="#F0F0F0"/>
<path d="M285.238 0.539062H79.3828V19.6255H285.238V0.539062Z" fill="#E0E0E0"/>
<path d="M268.705 16.68C268.439 16.4399 271.094 13.2293 274.62 9.53842C278.147 5.84754 281.244 3.05411 281.497 3.30691C281.749 3.55971 279.108 6.75762 275.581 10.4485C272.054 14.1394 268.958 16.9075 268.705 16.68Z" fill="white"/>
<path d="M281.497 16.6801C281.244 16.9329 278.16 14.1521 274.62 10.4486C271.081 6.74505 268.439 3.55977 268.705 3.30697C268.97 3.05417 272.042 5.83497 275.581 9.53849C279.12 13.242 281.762 16.4399 281.497 16.6801Z" fill="white"/>
<path d="M207.274 220.905H0.155273V101.015H207.274V220.905ZM1.41927 219.641H206.01V102.279H1.41927V219.641Z" fill="#E0E0E0"/>
<path d="M164.551 164.947H27.875V168.954H164.551V164.947Z" fill="#F0F0F0"/>
<path d="M173.968 179.888H27.875V184.261H173.968V179.888Z" fill="#F0F0F0"/>
<path d="M173.968 195.006H27.875V199.379H173.968V195.006Z" fill="#F0F0F0"/>
<path d="M75.6416 143.245H27.875V153.648H75.6416V143.245Z" fill="#F0F0F0"/>
<path d="M206.642 101.646H0.787109V120.733H206.642V101.646Z" fill="#E0E0E0"/>
<path d="M446.309 248.371H203.242V465.981H446.309V248.371Z" fill="#E6E6E6"/>
<path d="M215.465 179.825H25.0557V377.654H215.465V179.825Z" fill="#F0F0F0"/>
<path d="M215.465 179.825H25.0557V201.376H215.465V179.825Z" fill="#E0E0E0"/>
<path d="M40.7805 190.379C40.7458 191.161 40.4824 191.915 40.023 192.548C39.5636 193.181 38.9283 193.665 38.1961 193.941C37.4639 194.216 36.6669 194.271 35.9041 194.097C35.1413 193.923 34.4463 193.53 33.9053 192.965C33.3642 192.4 33.001 191.688 32.8607 190.919C32.7204 190.149 32.8091 189.355 33.116 188.636C33.4228 187.916 33.9342 187.302 34.5866 186.871C35.2391 186.439 36.0039 186.209 36.7862 186.208C37.868 186.235 38.8953 186.688 39.6437 187.47C40.3922 188.251 40.8008 189.297 40.7805 190.379Z" fill="white"/>
<path d="M56.9977 190.379C56.9655 191.164 56.703 191.923 56.2431 192.56C55.7831 193.197 55.1459 193.685 54.4108 193.963C53.6756 194.241 52.875 194.296 52.1086 194.123C51.3422 193.949 50.6437 193.554 50.1002 192.986C49.5566 192.419 49.192 191.704 49.0517 190.93C48.9114 190.157 49.0015 189.36 49.311 188.637C49.6204 187.915 50.1354 187.299 50.792 186.867C51.4485 186.436 52.2176 186.206 53.0035 186.208C54.0852 186.235 55.1126 186.688 55.861 187.47C56.6094 188.251 57.0181 189.297 56.9977 190.379Z" fill="white"/>
<path d="M73.2145 190.379C73.1823 191.164 72.9198 191.923 72.4599 192.56C71.9999 193.197 71.3627 193.685 70.6276 193.963C69.8924 194.241 69.0918 194.296 68.3254 194.123C67.5589 193.949 66.8605 193.554 66.317 192.986C65.7734 192.419 65.4088 191.704 65.2685 190.93C65.1282 190.157 65.2183 189.36 65.5278 188.637C65.8372 187.915 66.3522 187.299 67.0088 186.867C67.6653 186.436 68.4344 186.206 69.2203 186.208C70.302 186.235 71.3294 186.688 72.0778 187.47C72.8262 188.251 73.2349 189.297 73.2145 190.379Z" fill="white"/>
<path d="M512.96 43.8057H269.893V72.1825H512.96V43.8057Z" fill="#E0E0E0"/>
<path d="M290.597 57.7093C290.553 58.741 290.206 59.7368 289.601 60.5731C288.995 61.4095 288.157 62.0495 287.191 62.4138C286.225 62.7781 285.173 62.8505 284.166 62.6222C283.159 62.3938 282.241 61.8747 281.526 61.1293C280.812 60.3839 280.332 59.4451 280.146 58.4293C279.961 57.4135 280.078 56.3656 280.482 55.4157C280.887 54.4657 281.562 53.6556 282.423 53.0859C283.284 52.5161 284.294 52.2119 285.327 52.2109C286.754 52.2441 288.109 52.8413 289.097 53.8718C290.085 54.9023 290.625 56.2821 290.597 57.7093Z" fill="white"/>
<path d="M310.404 53.9933C311.105 54.7543 311.566 55.7047 311.731 56.726C311.895 57.7473 311.755 58.7944 311.329 59.7369C310.902 60.6793 310.208 61.4755 309.332 62.0261C308.456 62.5767 307.438 62.8574 306.404 62.8332C305.37 62.8091 304.365 62.4812 303.516 61.8904C302.667 61.2995 302.011 60.4719 301.629 59.5105C301.246 58.5492 301.156 57.4967 301.368 56.4842C301.58 55.4716 302.085 54.5438 302.82 53.8164C303.85 52.8361 305.227 52.3042 306.649 52.3374C308.07 52.3706 309.421 52.9661 310.404 53.9933Z" fill="white"/>
<path d="M333.295 57.7093C333.25 58.741 332.903 59.7368 332.298 60.5731C331.692 61.4095 330.854 62.0495 329.888 62.4138C328.922 62.7781 327.87 62.8505 326.863 62.6222C325.856 62.3938 324.938 61.8747 324.224 61.1293C323.509 60.3839 323.029 59.4451 322.844 58.4293C322.658 57.4135 322.775 56.3656 323.18 55.4157C323.584 54.4657 324.259 53.6556 325.12 53.0859C325.982 52.5161 326.991 52.2119 328.024 52.2109C329.451 52.2441 330.807 52.8413 331.795 53.8718C332.782 54.9023 333.322 56.2821 333.295 57.7093Z" fill="white"/>
<path d="M353.077 434.433L226.816 433.851C219.525 433.811 212.547 430.879 207.416 425.698C202.285 420.517 199.42 413.512 199.45 406.22L200.79 89.7018C200.805 86.0894 201.532 82.5153 202.929 79.1839C204.326 75.8524 206.366 72.829 208.932 70.2863C211.498 67.7437 214.54 65.7317 217.884 64.3654C221.228 62.9991 224.809 62.3053 228.421 62.3236L354.67 62.905C361.961 62.9418 368.94 65.8711 374.073 71.0495C379.207 76.2278 382.075 83.2319 382.048 90.5234L380.708 407.029C380.693 410.643 379.967 414.218 378.57 417.551C377.173 420.884 375.134 423.909 372.568 426.453C370.002 428.998 366.96 431.012 363.616 432.382C360.272 433.751 356.691 434.448 353.077 434.433Z" fill="#455A64"/>
<path d="M354.48 73.7885H330.009C329.21 73.8033 328.422 73.9753 327.69 74.2946C326.958 74.6138 326.297 75.0742 325.743 75.6494C325.189 76.2245 324.753 76.9032 324.462 77.6466C324.17 78.39 324.027 79.1836 324.043 79.9821V84.4187C324.058 85.2166 323.915 86.0096 323.623 86.7522C323.331 87.4949 322.896 88.1728 322.342 88.7469C321.788 89.3211 321.126 89.7803 320.394 90.0982C319.662 90.4161 318.874 90.5865 318.076 90.5997L270.373 90.3848C268.759 90.3418 267.229 89.66 266.117 88.4893C265.006 87.3185 264.404 85.7545 264.445 84.1407V79.704C264.486 78.0923 263.886 76.5301 262.777 75.3597C261.668 74.1894 260.141 73.5062 258.529 73.4599H249.922L228.497 73.3587C223.401 73.3284 218.5 75.3186 214.869 78.8935C211.237 82.4684 209.17 87.3367 209.12 92.4325L207.856 401.379C207.844 403.907 208.33 406.413 209.287 408.753C210.244 411.093 211.652 413.222 213.431 415.018C215.211 416.813 217.327 418.241 219.658 419.219C221.989 420.198 224.49 420.707 227.018 420.719L353.013 421.3C355.543 421.312 358.05 420.825 360.392 419.868C362.734 418.91 364.864 417.501 366.661 415.72C368.458 413.94 369.886 411.823 370.865 409.49C371.844 407.157 372.354 404.655 372.365 402.125L373.629 93.1783C373.66 88.0681 371.659 83.155 368.068 79.5191C364.478 75.8831 359.59 73.8219 354.48 73.7885Z" fill="white"/>
<path d="M337.432 379.616L243.744 379.211C242.771 379.211 241.988 378.149 242 376.86L242.101 352.351C242.101 351.087 242.898 350 243.871 350L337.559 350.43C338.098 350.523 338.58 350.821 338.905 351.261C339.23 351.702 339.373 352.251 339.303 352.793L339.214 377.277C339.214 378.579 338.405 379.628 337.432 379.616Z" fill="#1E40AF"/>
<path d="M263.905 369V361.525H264.81V368.197H268.285V369H263.905ZM271.847 369.117C271.341 369.117 270.897 368.996 270.515 368.755C270.135 368.515 269.839 368.178 269.624 367.744C269.413 367.311 269.307 366.805 269.307 366.226C269.307 365.642 269.413 365.132 269.624 364.697C269.839 364.261 270.135 363.923 270.515 363.682C270.897 363.441 271.341 363.321 271.847 363.321C272.353 363.321 272.796 363.441 273.176 363.682C273.558 363.923 273.855 364.261 274.066 364.697C274.28 365.132 274.387 365.642 274.387 366.226C274.387 366.805 274.28 367.311 274.066 367.744C273.855 368.178 273.558 368.515 273.176 368.755C272.796 368.996 272.353 369.117 271.847 369.117ZM271.847 368.343C272.232 368.343 272.548 368.244 272.796 368.047C273.044 367.85 273.228 367.591 273.347 367.27C273.467 366.949 273.526 366.601 273.526 366.226C273.526 365.851 273.467 365.502 273.347 365.179C273.228 364.855 273.044 364.593 272.796 364.394C272.548 364.194 272.232 364.095 271.847 364.095C271.463 364.095 271.146 364.194 270.898 364.394C270.65 364.593 270.466 364.855 270.347 365.179C270.228 365.502 270.168 365.851 270.168 366.226C270.168 366.601 270.228 366.949 270.347 367.27C270.466 367.591 270.65 367.85 270.898 368.047C271.146 368.244 271.463 368.343 271.847 368.343ZM277.965 371.219C277.549 371.219 277.191 371.166 276.892 371.059C276.593 370.954 276.344 370.815 276.144 370.642C275.947 370.472 275.79 370.29 275.673 370.095L276.359 369.613C276.437 369.715 276.536 369.832 276.655 369.964C276.774 370.097 276.937 370.213 277.144 370.31C277.353 370.41 277.627 370.46 277.965 370.46C278.418 370.46 278.791 370.35 279.086 370.131C279.38 369.912 279.527 369.569 279.527 369.102V367.963H279.454C279.391 368.066 279.301 368.192 279.184 368.343C279.07 368.491 278.904 368.624 278.688 368.741C278.474 368.855 278.184 368.912 277.819 368.912C277.367 368.912 276.96 368.805 276.6 368.591C276.243 368.377 275.959 368.066 275.75 367.657C275.543 367.248 275.44 366.752 275.44 366.168C275.44 365.593 275.541 365.093 275.742 364.668C275.944 364.239 276.225 363.908 276.586 363.675C276.946 363.439 277.362 363.321 277.834 363.321C278.199 363.321 278.488 363.382 278.703 363.503C278.919 363.623 279.085 363.759 279.199 363.912C279.316 364.063 279.406 364.187 279.469 364.284H279.557V363.394H280.389V369.161C280.389 369.642 280.279 370.034 280.06 370.336C279.844 370.64 279.552 370.863 279.184 371.004C278.819 371.147 278.413 371.219 277.965 371.219ZM277.936 368.139C278.282 368.139 278.574 368.06 278.812 367.901C279.05 367.743 279.232 367.516 279.356 367.219C279.48 366.922 279.542 366.567 279.542 366.153C279.542 365.749 279.481 365.393 279.359 365.084C279.238 364.775 279.058 364.533 278.819 364.357C278.581 364.182 278.286 364.095 277.936 364.095C277.571 364.095 277.267 364.187 277.024 364.372C276.783 364.557 276.601 364.805 276.48 365.117C276.361 365.428 276.301 365.774 276.301 366.153C276.301 366.542 276.362 366.887 276.483 367.186C276.608 367.483 276.79 367.716 277.031 367.887C277.274 368.055 277.576 368.139 277.936 368.139ZM281.965 369V363.394H282.827V369H281.965ZM282.403 362.459C282.236 362.459 282.091 362.402 281.969 362.288C281.85 362.174 281.79 362.036 281.79 361.876C281.79 361.715 281.85 361.577 281.969 361.463C282.091 361.349 282.236 361.292 282.403 361.292C282.571 361.292 282.715 361.349 282.834 361.463C282.956 361.577 283.017 361.715 283.017 361.876C283.017 362.036 282.956 362.174 282.834 362.288C282.715 362.402 282.571 362.459 282.403 362.459ZM285.266 365.628V369H284.404V363.394H285.237V364.27H285.31C285.441 363.985 285.641 363.756 285.908 363.584C286.176 363.408 286.521 363.321 286.945 363.321C287.324 363.321 287.656 363.399 287.941 363.554C288.226 363.708 288.447 363.941 288.605 364.255C288.764 364.567 288.843 364.961 288.843 365.438V369H287.981V365.496C287.981 365.056 287.867 364.713 287.638 364.467C287.41 364.219 287.096 364.095 286.697 364.095C286.422 364.095 286.176 364.154 285.959 364.273C285.745 364.393 285.576 364.567 285.452 364.795C285.328 365.024 285.266 365.301 285.266 365.628ZM293.424 369V361.525H295.95C296.536 361.525 297.016 361.631 297.388 361.843C297.763 362.052 298.04 362.335 298.22 362.693C298.4 363.051 298.49 363.45 298.49 363.89C298.49 364.331 298.4 364.731 298.22 365.091C298.042 365.451 297.767 365.738 297.395 365.952C297.023 366.164 296.546 366.27 295.964 366.27H294.154V365.467H295.935C296.337 365.467 296.659 365.398 296.902 365.259C297.146 365.12 297.322 364.933 297.432 364.697C297.544 364.458 297.6 364.19 297.6 363.89C297.6 363.591 297.544 363.323 297.432 363.087C297.322 362.851 297.145 362.666 296.899 362.532C296.653 362.396 296.327 362.328 295.921 362.328H294.329V369H293.424ZM301.481 369.131C301.126 369.131 300.804 369.064 300.514 368.931C300.224 368.794 299.994 368.599 299.824 368.343C299.654 368.085 299.569 367.774 299.569 367.409C299.569 367.087 299.632 366.827 299.758 366.628C299.885 366.426 300.054 366.267 300.266 366.153C300.477 366.039 300.711 365.954 300.967 365.898C301.224 365.839 301.484 365.793 301.744 365.759C302.085 365.715 302.361 365.682 302.572 365.66C302.787 365.636 302.942 365.596 303.04 365.54C303.139 365.484 303.189 365.387 303.189 365.248V365.219C303.189 364.859 303.091 364.579 302.894 364.379C302.699 364.18 302.403 364.08 302.007 364.08C301.596 364.08 301.273 364.17 301.04 364.35C300.806 364.53 300.642 364.722 300.547 364.927L299.729 364.635C299.875 364.294 300.07 364.029 300.313 363.839C300.559 363.647 300.827 363.513 301.116 363.438C301.408 363.36 301.695 363.321 301.978 363.321C302.158 363.321 302.364 363.343 302.598 363.387C302.834 363.428 303.062 363.514 303.281 363.646C303.502 363.777 303.686 363.975 303.832 364.241C303.978 364.506 304.051 364.861 304.051 365.306V369H303.189V368.241H303.145C303.087 368.362 302.99 368.493 302.853 368.631C302.717 368.77 302.536 368.888 302.31 368.985C302.083 369.083 301.807 369.131 301.481 369.131ZM301.613 368.358C301.953 368.358 302.24 368.291 302.474 368.157C302.71 368.023 302.888 367.85 303.007 367.639C303.128 367.427 303.189 367.204 303.189 366.971V366.182C303.153 366.226 303.072 366.266 302.948 366.303C302.827 366.337 302.686 366.367 302.525 366.394C302.367 366.418 302.212 366.44 302.061 366.46C301.913 366.477 301.793 366.491 301.7 366.504C301.476 366.533 301.267 366.58 301.072 366.646C300.88 366.709 300.724 366.805 300.605 366.934C300.488 367.061 300.43 367.233 300.43 367.452C300.43 367.752 300.541 367.978 300.762 368.131C300.986 368.282 301.269 368.358 301.613 368.358ZM307.886 371.219C307.47 371.219 307.112 371.166 306.813 371.059C306.513 370.954 306.264 370.815 306.064 370.642C305.867 370.472 305.71 370.29 305.594 370.095L306.28 369.613C306.358 369.715 306.456 369.832 306.575 369.964C306.695 370.097 306.858 370.213 307.065 370.31C307.274 370.41 307.547 370.46 307.886 370.46C308.338 370.46 308.712 370.35 309.006 370.131C309.301 369.912 309.448 369.569 309.448 369.102V367.963H309.375C309.312 368.066 309.222 368.192 309.105 368.343C308.99 368.491 308.825 368.624 308.608 368.741C308.394 368.855 308.105 368.912 307.74 368.912C307.287 368.912 306.881 368.805 306.521 368.591C306.163 368.377 305.88 368.066 305.67 367.657C305.463 367.248 305.36 366.752 305.36 366.168C305.36 365.593 305.461 365.093 305.663 364.668C305.865 364.239 306.146 363.908 306.506 363.675C306.866 363.439 307.282 363.321 307.754 363.321C308.119 363.321 308.409 363.382 308.623 363.503C308.84 363.623 309.005 363.759 309.119 363.912C309.236 364.063 309.326 364.187 309.389 364.284H309.477V363.394H310.309V369.161C310.309 369.642 310.2 370.034 309.981 370.336C309.764 370.64 309.472 370.863 309.105 371.004C308.74 371.147 308.333 371.219 307.886 371.219ZM307.857 368.139C308.202 368.139 308.494 368.06 308.732 367.901C308.971 367.743 309.152 367.516 309.276 367.219C309.4 366.922 309.462 366.567 309.462 366.153C309.462 365.749 309.402 365.393 309.28 365.084C309.158 364.775 308.978 364.533 308.74 364.357C308.501 364.182 308.207 364.095 307.857 364.095C307.492 364.095 307.187 364.187 306.944 364.372C306.703 364.557 306.522 364.805 306.4 365.117C306.281 365.428 306.221 365.774 306.221 366.153C306.221 366.542 306.282 366.887 306.404 367.186C306.528 367.483 306.71 367.716 306.951 367.887C307.195 368.055 307.496 368.139 307.857 368.139ZM314.236 369.117C313.696 369.117 313.23 368.998 312.839 368.759C312.449 368.518 312.149 368.182 311.937 367.752C311.728 367.319 311.623 366.815 311.623 366.241C311.623 365.666 311.728 365.16 311.937 364.722C312.149 364.282 312.443 363.939 312.82 363.693C313.2 363.445 313.643 363.321 314.149 363.321C314.441 363.321 314.729 363.37 315.014 363.467C315.299 363.564 315.558 363.722 315.791 363.941C316.025 364.158 316.211 364.445 316.35 364.803C316.488 365.16 316.558 365.601 316.558 366.124V366.489H312.236V365.744H315.682C315.682 365.428 315.619 365.146 315.492 364.898C315.368 364.649 315.19 364.454 314.959 364.31C314.73 364.166 314.46 364.095 314.149 364.095C313.806 364.095 313.509 364.18 313.258 364.35C313.01 364.518 312.819 364.737 312.685 365.007C312.551 365.277 312.485 365.567 312.485 365.876V366.372C312.485 366.795 312.558 367.154 312.704 367.449C312.852 367.741 313.058 367.963 313.32 368.117C313.583 368.268 313.888 368.343 314.236 368.343C314.463 368.343 314.667 368.311 314.85 368.248C315.035 368.182 315.194 368.085 315.328 367.956C315.462 367.825 315.565 367.662 315.638 367.467L316.47 367.701C316.383 367.983 316.235 368.231 316.029 368.445C315.822 368.657 315.566 368.822 315.262 368.942C314.958 369.058 314.616 369.117 314.236 369.117Z" fill="#E8E8E3"/>
<path d="M262.529 164.607L230.02 164.459L229.992 170.425L262.502 170.573L262.529 164.607Z" fill="#1E40AF"/>
<path opacity="0.1" d="M262.529 164.607L230.02 164.459L229.992 170.425L262.502 170.573L262.529 164.607Z" fill="black"/>
<path d="M357.83 201.237C358.085 201.211 358.336 201.151 358.576 201.06C358.926 200.923 359.23 200.69 359.453 200.388C359.677 200.087 359.811 199.728 359.84 199.353C359.84 197.344 359.84 194.411 359.84 190.644C359.84 188.761 359.84 186.65 359.84 184.324C359.84 183.756 359.84 183.161 359.84 182.567C359.922 181.991 359.797 181.404 359.486 180.912C359.312 180.675 359.085 180.483 358.824 180.349C358.563 180.215 358.275 180.144 357.982 180.141H356.01H337.745L232.024 179.749C231.753 179.744 231.486 179.805 231.244 179.926C231.002 180.047 230.792 180.225 230.634 180.444C230.328 180.938 230.212 181.526 230.305 182.1C230.305 183.364 230.305 184.628 230.305 185.892C230.305 188.42 230.305 190.948 230.305 193.476C230.305 194.74 230.305 196.004 230.305 197.268C230.253 197.856 230.253 198.449 230.305 199.037C230.371 199.29 230.495 199.524 230.666 199.721C230.837 199.918 231.051 200.073 231.291 200.175C231.54 200.274 231.807 200.321 232.075 200.314H238.508L266.582 200.466L314.108 200.756L346.151 201.009L354.86 201.11H357.122C357.64 201.11 357.893 201.11 357.893 201.11H357.122H354.86H346.151H314.108L266.582 200.959L238.508 200.845H232.075C231.721 200.859 231.367 200.799 231.038 200.668C230.705 200.526 230.409 200.31 230.173 200.036C229.936 199.762 229.765 199.438 229.673 199.088C229.6 198.756 229.574 198.416 229.597 198.077V197.141C229.597 195.877 229.597 194.613 229.597 193.349C229.597 190.821 229.597 188.293 229.597 185.765C229.597 184.501 229.597 183.237 229.597 181.973C229.573 181.637 229.573 181.299 229.597 180.962C229.645 180.59 229.788 180.237 230.014 179.938C230.232 179.633 230.521 179.385 230.855 179.216C231.19 179.046 231.561 178.96 231.936 178.965L337.657 179.546L355.921 179.673H357.893C358.241 179.673 358.583 179.757 358.891 179.918C359.199 180.078 359.464 180.311 359.663 180.596C360.019 181.145 360.163 181.806 360.067 182.454C360.067 183.048 360.067 183.642 360.067 184.211C360.067 186.511 360.067 188.622 360.067 190.531C360.067 194.323 359.979 197.23 359.953 199.252C359.923 199.641 359.781 200.013 359.546 200.324C359.311 200.636 358.992 200.873 358.626 201.009C358.387 201.157 358.111 201.236 357.83 201.237Z" fill="#E0E0E0"/>
<path d="M299.243 186.095H239.784V191.669H299.243V186.095Z" fill="#1E40AF"/>
<path opacity="0.2" d="M299.243 186.095H239.784V191.669H299.243V186.095Z" fill="white"/>
<path d="M262.308 219.033L229.798 218.886L229.771 224.852L262.281 224.999L262.308 219.033Z" fill="#1E40AF"/>
<path opacity="0.1" d="M262.308 219.033L229.798 218.886L229.771 224.852L262.281 224.999L262.308 219.033Z" fill="black"/>
<path d="M357.008 255.665C357.263 255.633 357.517 255.587 357.766 255.526C358.119 255.413 358.444 255.227 358.719 254.978C358.994 254.73 359.212 254.425 359.359 254.085C359.558 253.575 359.636 253.025 359.587 252.48C359.587 251.873 359.587 251.216 359.587 250.482C359.587 249.016 359.587 247.348 359.587 245.426V237.4C359.647 236.819 359.518 236.234 359.22 235.732C358.908 235.216 358.418 234.834 357.842 234.657C357.213 234.545 356.572 234.511 355.934 234.556H337.745L232.39 234.164C231.824 234.166 231.277 234.373 230.851 234.747C230.426 235.121 230.151 235.637 230.077 236.199C230.077 237.4 230.077 238.727 230.077 239.991C230.077 242.519 230.077 245.047 230.077 247.575C230.077 248.839 230.077 250.103 230.077 251.367C230.03 251.958 230.055 252.552 230.153 253.137C230.311 253.649 230.636 254.094 231.076 254.401C231.543 254.697 232.091 254.839 232.643 254.805H234.4H238.053L266.025 254.944L313.387 255.235L345.316 255.488L354 255.589H356.262H357.021H356.262H354H345.316H313.387L266 255.538L238.028 255.437H232.529C231.846 255.478 231.167 255.296 230.595 254.919C230.02 254.521 229.6 253.936 229.407 253.263C229.294 252.621 229.26 251.967 229.306 251.317C229.306 250.053 229.306 248.789 229.306 247.525C229.306 244.997 229.306 242.469 229.306 239.941C229.306 238.677 229.306 237.413 229.306 236.149C229.398 235.426 229.751 234.762 230.298 234.28C230.844 233.798 231.548 233.533 232.276 233.532L337.631 234.114L355.82 234.253C356.497 234.211 357.177 234.258 357.842 234.392C358.499 234.606 359.053 235.057 359.397 235.656C359.724 236.212 359.866 236.859 359.801 237.501C359.801 238.095 359.801 238.677 359.801 239.258C359.801 241.546 359.801 243.644 359.801 245.578C359.801 247.512 359.801 249.143 359.801 250.634C359.801 251.355 359.801 252.025 359.801 252.644C359.847 253.209 359.756 253.777 359.536 254.3C359.372 254.649 359.135 254.958 358.84 255.206C358.546 255.455 358.201 255.637 357.83 255.741C357.553 255.764 357.275 255.738 357.008 255.665Z" fill="#E0E0E0"/>
<path d="M262.062 275.822L229.553 275.675L229.526 281.641L262.035 281.788L262.062 275.822Z" fill="#1E40AF"/>
<path opacity="0.1" d="M262.062 275.822L229.553 275.675L229.526 281.641L262.035 281.788L262.062 275.822Z" fill="black"/>
<path d="M356.756 312.432C357.011 312.402 357.264 312.355 357.514 312.293C357.865 312.181 358.189 311.996 358.464 311.75C358.738 311.503 358.957 311.202 359.107 310.864C359.305 310.354 359.383 309.805 359.334 309.259C359.334 308.64 359.334 307.995 359.334 307.249C359.334 305.796 359.334 304.115 359.334 302.193V294.167C359.394 293.586 359.266 293.001 358.968 292.498C358.648 291.993 358.16 291.616 357.59 291.437C356.961 291.32 356.32 291.282 355.681 291.323H337.492L232.138 290.931C231.571 290.932 231.024 291.14 230.599 291.514C230.173 291.888 229.898 292.404 229.825 292.966C229.825 294.23 229.825 295.494 229.825 296.758C229.825 299.286 229.825 301.814 229.825 304.342C229.825 305.606 229.825 306.87 229.825 308.134C229.778 308.721 229.803 309.311 229.901 309.891C230.052 310.407 230.378 310.854 230.823 311.155C231.287 311.458 231.838 311.6 232.391 311.56H237.889L265.861 311.711L313.223 312.002L345.152 312.255L353.836 312.356H356.098C356.604 312.356 356.857 312.356 356.857 312.356C356.857 312.356 356.604 312.356 356.098 312.356H353.836H345.152H313.223L265.861 312.217L237.889 312.103H232.391C231.706 312.149 231.026 311.967 230.457 311.585C229.882 311.186 229.462 310.601 229.269 309.929C229.155 309.287 229.121 308.633 229.167 307.982C229.167 306.718 229.167 305.454 229.167 304.19C229.167 301.662 229.167 299.134 229.167 296.606C229.167 295.342 229.167 294.078 229.167 292.751C229.257 292.03 229.607 291.365 230.151 290.884C230.696 290.402 231.398 290.135 232.125 290.135L337.48 290.716L355.669 290.855C356.346 290.814 357.026 290.86 357.691 290.994C358.348 291.209 358.902 291.659 359.246 292.258C359.573 292.815 359.714 293.461 359.65 294.104C359.65 294.698 359.65 295.292 359.65 295.861C359.65 298.149 359.65 300.247 359.65 302.181C359.65 304.115 359.65 305.745 359.65 307.237C359.65 307.957 359.65 308.627 359.65 309.246C359.699 309.812 359.607 310.38 359.385 310.902C359.221 311.251 358.983 311.56 358.689 311.809C358.394 312.058 358.05 312.24 357.678 312.343C357.382 312.445 357.066 312.475 356.756 312.432Z" fill="#E0E0E0"/>
<path d="M297.974 242.098L238.516 241.828L238.49 247.402L297.948 247.672L297.974 242.098Z" fill="#1E40AF"/>
<path opacity="0.2" d="M297.974 242.098L238.516 241.828L238.49 247.402L297.948 247.672L297.974 242.098Z" fill="white"/>
<path d="M243.893 302.117C243.856 302.625 243.67 303.111 243.359 303.515C243.048 303.919 242.625 304.223 242.143 304.388C241.661 304.554 241.141 304.575 240.647 304.448C240.153 304.321 239.708 304.051 239.366 303.673C239.024 303.295 238.8 302.825 238.723 302.321C238.645 301.817 238.717 301.302 238.93 300.839C239.143 300.375 239.487 299.985 239.92 299.716C240.353 299.446 240.855 299.31 241.365 299.323C242.069 299.362 242.73 299.678 243.203 300.201C243.676 300.724 243.924 301.412 243.893 302.117Z" fill="#1E40AF"/>
<path d="M251.945 302.155C251.969 302.512 251.921 302.869 251.801 303.206C251.682 303.543 251.495 303.851 251.251 304.113C251.008 304.374 250.713 304.582 250.385 304.724C250.058 304.867 249.704 304.94 249.347 304.94C248.99 304.94 248.636 304.867 248.309 304.724C247.981 304.582 247.686 304.374 247.443 304.113C247.199 303.851 247.012 303.543 246.893 303.206C246.773 302.869 246.725 302.512 246.749 302.155C246.725 301.799 246.773 301.441 246.893 301.105C247.012 300.768 247.199 300.459 247.443 300.198C247.686 299.937 247.981 299.728 248.309 299.586C248.636 299.444 248.99 299.37 249.347 299.37C249.704 299.37 250.058 299.444 250.385 299.586C250.713 299.728 251.008 299.937 251.251 300.198C251.495 300.459 251.682 300.768 251.801 301.105C251.921 301.441 251.969 301.799 251.945 302.155Z" fill="#1E40AF"/>
<path d="M260.008 302.193C259.971 302.701 259.785 303.188 259.474 303.591C259.163 303.995 258.74 304.299 258.258 304.465C257.776 304.63 257.256 304.651 256.762 304.524C256.268 304.397 255.823 304.127 255.481 303.749C255.139 303.371 254.915 302.901 254.838 302.397C254.76 301.894 254.833 301.378 255.046 300.915C255.258 300.452 255.603 300.061 256.036 299.792C256.468 299.522 256.971 299.386 257.48 299.399C258.183 299.442 258.842 299.758 259.314 300.28C259.787 300.802 260.036 301.489 260.008 302.193Z" fill="#1E40AF"/>
<path d="M268.06 302.231C268.023 302.739 267.837 303.226 267.526 303.629C267.215 304.033 266.792 304.337 266.31 304.503C265.828 304.668 265.308 304.689 264.814 304.562C264.32 304.435 263.875 304.166 263.533 303.788C263.191 303.41 262.967 302.939 262.89 302.436C262.812 301.932 262.884 301.416 263.097 300.953C263.31 300.49 263.654 300.099 264.087 299.83C264.52 299.56 265.022 299.424 265.532 299.437C266.235 299.48 266.893 299.796 267.366 300.318C267.839 300.841 268.088 301.527 268.06 302.231Z" fill="#1E40AF"/>
<path d="M276.112 302.256C276.077 302.766 275.893 303.253 275.583 303.659C275.274 304.064 274.851 304.37 274.369 304.538C273.887 304.705 273.367 304.728 272.872 304.602C272.377 304.476 271.931 304.208 271.587 303.83C271.244 303.452 271.019 302.982 270.941 302.478C270.863 301.973 270.934 301.457 271.147 300.993C271.36 300.529 271.704 300.138 272.137 299.868C272.571 299.598 273.074 299.462 273.584 299.476C274.285 299.518 274.941 299.832 275.413 300.352C275.885 300.871 276.136 301.555 276.112 302.256Z" fill="#1E40AF"/>
<path d="M284.176 302.294C284.142 302.8 283.96 303.285 283.653 303.69C283.346 304.095 282.928 304.401 282.449 304.57C281.971 304.74 281.453 304.766 280.96 304.646C280.467 304.525 280.02 304.263 279.673 303.892C279.327 303.52 279.097 303.056 279.012 302.555C278.926 302.055 278.989 301.54 279.192 301.075C279.395 300.609 279.73 300.214 280.155 299.936C280.58 299.659 281.077 299.511 281.585 299.513C282.297 299.539 282.969 299.847 283.455 300.368C283.941 300.889 284.2 301.581 284.176 302.294Z" fill="#1E40AF"/>
<path d="M292.228 302.332C292.253 302.688 292.204 303.046 292.085 303.383C291.965 303.719 291.778 304.028 291.534 304.289C291.291 304.551 290.996 304.759 290.668 304.901C290.341 305.044 289.987 305.117 289.63 305.117C289.273 305.117 288.92 305.044 288.592 304.901C288.264 304.759 287.97 304.551 287.726 304.289C287.482 304.028 287.295 303.719 287.176 303.383C287.057 303.046 287.008 302.688 287.033 302.332C287.008 301.976 287.057 301.618 287.176 301.281C287.295 300.945 287.482 300.636 287.726 300.375C287.97 300.114 288.264 299.905 288.592 299.763C288.92 299.62 289.273 299.547 289.63 299.547C289.987 299.547 290.341 299.62 290.668 299.763C290.996 299.905 291.291 300.114 291.534 300.375C291.778 300.636 291.965 300.945 292.085 301.281C292.204 301.618 292.253 301.976 292.228 302.332Z" fill="#1E40AF"/>
<path d="M300.28 302.37C300.245 302.876 300.063 303.362 299.757 303.766C299.45 304.171 299.031 304.477 298.553 304.647C298.074 304.816 297.557 304.843 297.063 304.722C296.57 304.601 296.123 304.339 295.777 303.968C295.431 303.596 295.201 303.132 295.115 302.631C295.03 302.131 295.092 301.616 295.296 301.151C295.499 300.686 295.833 300.29 296.259 300.012C296.684 299.735 297.181 299.588 297.689 299.589C298.401 299.615 299.073 299.923 299.559 300.444C300.044 300.965 300.304 301.658 300.28 302.37Z" fill="#1E40AF"/>
<path d="M308.331 302.408C308.297 302.917 308.113 303.405 307.803 303.81C307.493 304.216 307.071 304.521 306.589 304.689C306.107 304.857 305.586 304.879 305.092 304.753C304.597 304.627 304.15 304.359 303.807 303.981C303.464 303.604 303.239 303.133 303.161 302.629C303.082 302.125 303.154 301.609 303.367 301.145C303.58 300.681 303.924 300.289 304.357 300.02C304.79 299.75 305.293 299.613 305.803 299.627C306.504 299.669 307.161 299.984 307.633 300.503C308.105 301.023 308.356 301.706 308.331 302.408Z" fill="#1E40AF"/>
<g opacity="0.2">
<path d="M243.893 302.117C243.856 302.625 243.67 303.111 243.359 303.515C243.048 303.919 242.625 304.223 242.143 304.388C241.661 304.554 241.141 304.575 240.647 304.448C240.153 304.321 239.708 304.051 239.366 303.673C239.024 303.295 238.8 302.825 238.723 302.321C238.645 301.817 238.717 301.302 238.93 300.839C239.143 300.375 239.487 299.985 239.92 299.716C240.353 299.446 240.855 299.31 241.365 299.323C242.069 299.362 242.73 299.678 243.203 300.201C243.676 300.724 243.924 301.412 243.893 302.117Z" fill="white"/>
<path d="M251.945 302.154C251.969 302.511 251.921 302.868 251.801 303.205C251.682 303.542 251.495 303.85 251.251 304.112C251.008 304.373 250.713 304.581 250.385 304.724C250.058 304.866 249.704 304.939 249.347 304.939C248.99 304.939 248.636 304.866 248.309 304.724C247.981 304.581 247.686 304.373 247.443 304.112C247.199 303.85 247.012 303.542 246.893 303.205C246.773 302.868 246.725 302.511 246.749 302.154C246.725 301.798 246.773 301.44 246.893 301.104C247.012 300.767 247.199 300.458 247.443 300.197C247.686 299.936 247.981 299.728 248.309 299.585C248.636 299.443 248.99 299.369 249.347 299.369C249.704 299.369 250.058 299.443 250.385 299.585C250.713 299.728 251.008 299.936 251.251 300.197C251.495 300.458 251.682 300.767 251.801 301.104C251.921 301.44 251.969 301.798 251.945 302.154Z" fill="white"/>
<path d="M260.009 302.193C259.972 302.701 259.786 303.188 259.475 303.591C259.164 303.995 258.741 304.299 258.259 304.465C257.777 304.63 257.257 304.651 256.763 304.524C256.269 304.397 255.824 304.127 255.482 303.749C255.14 303.371 254.916 302.901 254.839 302.397C254.761 301.894 254.834 301.378 255.047 300.915C255.259 300.452 255.604 300.061 256.036 299.792C256.469 299.522 256.972 299.386 257.481 299.399C258.184 299.442 258.843 299.758 259.315 300.28C259.788 300.802 260.037 301.489 260.009 302.193Z" fill="white"/>
<path d="M268.061 302.231C268.024 302.739 267.838 303.226 267.527 303.629C267.216 304.033 266.793 304.337 266.311 304.503C265.829 304.668 265.309 304.689 264.815 304.562C264.321 304.435 263.876 304.166 263.534 303.788C263.191 303.41 262.968 302.939 262.891 302.436C262.813 301.932 262.885 301.416 263.098 300.953C263.311 300.49 263.655 300.099 264.088 299.83C264.521 299.56 265.023 299.424 265.533 299.437C266.236 299.48 266.894 299.796 267.367 300.318C267.84 300.841 268.089 301.527 268.061 302.231Z" fill="white"/>
<path d="M276.113 302.255C276.078 302.765 275.894 303.252 275.584 303.658C275.275 304.064 274.852 304.369 274.37 304.537C273.888 304.704 273.368 304.727 272.873 304.601C272.378 304.475 271.932 304.207 271.588 303.829C271.245 303.451 271.02 302.981 270.942 302.477C270.864 301.972 270.935 301.456 271.148 300.992C271.361 300.528 271.705 300.137 272.138 299.867C272.572 299.597 273.075 299.461 273.585 299.475C274.285 299.517 274.942 299.831 275.414 300.351C275.886 300.87 276.137 301.554 276.113 302.255Z" fill="white"/>
<path d="M284.177 302.294C284.143 302.8 283.961 303.285 283.654 303.69C283.347 304.095 282.929 304.401 282.45 304.57C281.972 304.74 281.454 304.766 280.961 304.646C280.468 304.525 280.021 304.263 279.674 303.892C279.328 303.52 279.098 303.056 279.013 302.555C278.927 302.055 278.99 301.54 279.193 301.075C279.396 300.609 279.731 300.214 280.156 299.936C280.581 299.659 281.078 299.511 281.586 299.513C282.298 299.539 282.97 299.847 283.456 300.368C283.942 300.889 284.201 301.581 284.177 302.294Z" fill="white"/>
<path d="M292.229 302.332C292.254 302.688 292.205 303.046 292.086 303.383C291.966 303.719 291.779 304.028 291.535 304.289C291.292 304.551 290.997 304.759 290.669 304.901C290.342 305.044 289.988 305.117 289.631 305.117C289.274 305.117 288.921 305.044 288.593 304.901C288.265 304.759 287.971 304.551 287.727 304.289C287.483 304.028 287.296 303.719 287.177 303.383C287.058 303.046 287.009 302.688 287.034 302.332C287.009 301.976 287.058 301.618 287.177 301.281C287.296 300.945 287.483 300.636 287.727 300.375C287.971 300.114 288.265 299.905 288.593 299.763C288.921 299.62 289.274 299.547 289.631 299.547C289.988 299.547 290.342 299.62 290.669 299.763C290.997 299.905 291.292 300.114 291.535 300.375C291.779 300.636 291.966 300.945 292.086 301.281C292.205 301.618 292.254 301.976 292.229 302.332Z" fill="white"/>
<path d="M300.28 302.37C300.245 302.876 300.063 303.362 299.757 303.766C299.45 304.171 299.031 304.477 298.553 304.647C298.074 304.816 297.557 304.843 297.063 304.722C296.57 304.601 296.123 304.339 295.777 303.968C295.431 303.596 295.201 303.132 295.115 302.631C295.03 302.131 295.092 301.616 295.296 301.151C295.499 300.686 295.833 300.29 296.259 300.012C296.684 299.735 297.181 299.588 297.689 299.589C298.401 299.615 299.073 299.923 299.559 300.444C300.044 300.965 300.304 301.658 300.28 302.37Z" fill="white"/>
<path d="M308.331 302.408C308.297 302.917 308.113 303.405 307.803 303.81C307.493 304.216 307.071 304.521 306.589 304.689C306.107 304.857 305.586 304.879 305.092 304.753C304.597 304.627 304.15 304.359 303.807 303.981C303.464 303.604 303.239 303.133 303.161 302.629C303.082 302.125 303.154 301.609 303.367 301.145C303.58 300.681 303.924 300.289 304.357 300.02C304.79 299.75 305.293 299.613 305.803 299.627C306.504 299.669 307.161 299.984 307.633 300.503C308.105 301.023 308.356 301.706 308.331 302.408Z" fill="white"/>
</g>
<path d="M296.892 119.936C297.771 119.55 298.516 118.913 299.035 118.107C299.554 117.3 299.824 116.358 299.812 115.399C299.845 114.775 299.75 114.151 299.534 113.565C299.318 112.979 298.985 112.444 298.555 111.991C298.125 111.538 297.608 111.177 297.034 110.93C296.46 110.684 295.842 110.557 295.218 110.557C294.593 110.557 293.975 110.684 293.401 110.93C292.828 111.177 292.31 111.538 291.88 111.991C291.45 112.444 291.117 112.979 290.901 113.565C290.685 114.151 290.59 114.775 290.623 115.399C290.604 116.368 290.872 117.321 291.394 118.137C291.916 118.954 292.668 119.598 293.556 119.987C286.477 121.049 286.793 128.734 286.793 128.734L303.528 128.81C303.528 128.81 303.92 120.986 296.892 119.936Z" fill="#1E40AF"/>
<path opacity="0.1" d="M296.892 119.936C297.771 119.55 298.516 118.913 299.035 118.107C299.554 117.3 299.824 116.358 299.812 115.399C299.845 114.775 299.75 114.151 299.534 113.565C299.318 112.979 298.985 112.444 298.555 111.991C298.125 111.538 297.608 111.177 297.034 110.93C296.46 110.684 295.842 110.557 295.218 110.557C294.593 110.557 293.975 110.684 293.401 110.93C292.828 111.177 292.31 111.538 291.88 111.991C291.45 112.444 291.117 112.979 290.901 113.565C290.685 114.151 290.59 114.775 290.623 115.399C290.604 116.368 290.872 117.321 291.394 118.137C291.916 118.954 292.668 119.598 293.556 119.987C286.477 121.049 286.793 128.734 286.793 128.734L303.528 128.81C303.528 128.81 303.92 120.986 296.892 119.936Z" fill="black"/>
<path d="M324.087 133.767L264.439 133.496L264.407 140.625L324.055 140.896L324.087 133.767Z" fill="#1E40AF"/>
<path opacity="0.2" d="M324.087 133.767L264.439 133.496L264.407 140.625L324.055 140.896L324.087 133.767Z" fill="white"/>
<path d="M374.931 375.517C355.402 361.879 350.978 336.561 351.749 313.796C351.876 310.004 351.458 305.985 353.266 302.66C355.073 299.336 359.295 297.048 362.695 298.641C365.514 299.968 366.74 303.254 368.32 305.972C370.428 309.592 373.518 312.541 377.231 314.479C379.646 315.743 382.641 316.501 385.03 315.187C388.317 313.379 388.696 308.867 388.671 305.075C388.671 298.021 388.628 290.977 388.544 283.94C388.317 280.162 388.701 276.372 389.682 272.716C390.857 269.126 393.474 265.802 397.051 264.791C400.628 263.78 405.09 265.865 405.899 269.556C406.038 271.119 406.076 272.69 406.013 274.258C406.114 275.838 406.847 277.57 408.326 278.05C409.805 278.531 411.347 277.431 412.484 276.319C416.377 272.527 419.032 267.584 421.497 262.705C423.961 257.826 426.376 252.808 429.915 248.65C433.454 244.491 438.346 241.192 443.819 240.876C449.292 240.56 454.993 243.922 456.358 249.231C457.723 254.54 454.626 259.962 451.302 264.273C446.285 270.671 440.372 276.311 433.745 281.021C432.451 281.727 431.419 282.83 430.8 284.168C429.978 286.696 432.367 289.224 434.857 290.02C437.676 290.956 440.735 290.665 443.705 291.019C446.676 291.373 449.836 292.662 450.96 295.443C452.503 299.311 449.267 303.355 446.094 306.01C439.724 311.319 432.49 315.496 424.707 318.359C421.926 319.37 419.007 320.268 416.757 322.214C414.507 324.161 413.167 327.561 414.519 330.228C415.872 332.895 419.348 333.742 422.268 333.199C425.188 332.655 427.779 331.088 430.56 330.039C435.755 328.079 442.454 328.433 445.728 332.92C446.742 334.466 447.384 336.226 447.603 338.062C447.822 339.897 447.613 341.759 446.992 343.5C445.726 346.965 443.779 350.141 441.266 352.841C432.987 362.732 422.23 370.248 410.095 374.62C398.049 378.791 386.888 379.929 374.918 375.543" fill="#1E40AF"/>
<path d="M450.796 243.998C450.796 243.998 450.682 244.124 450.429 244.352L449.304 245.351C448.318 246.235 446.865 247.525 445.032 249.231C439.836 254.056 435.01 259.266 430.597 264.816C427.778 268.317 424.859 272.286 421.749 276.597C418.64 280.907 415.429 285.558 412.244 290.501C408.848 295.712 405.738 301.105 402.928 306.655C401.462 309.549 400.173 312.57 398.846 315.654L394.927 325.071C389.762 336.932 385.264 349.073 381.453 361.436C378.383 371.552 376.267 381.932 375.133 392.442C374.398 399.535 374.279 406.678 374.779 413.791C374.981 416.319 375.171 418.253 375.348 419.568C375.424 420.2 375.474 420.705 375.525 421.072V421.59C375.47 421.426 375.432 421.256 375.411 421.084C375.348 420.718 375.272 420.225 375.171 419.593C374.943 418.329 374.703 416.332 374.476 413.804C373.866 406.677 373.908 399.51 374.602 392.392C375.666 381.837 377.736 371.408 380.783 361.247C384.562 348.849 389.048 336.678 394.219 324.793L398.239 315.414C399.566 312.343 400.868 309.296 402.347 306.389C405.176 300.823 408.312 295.417 411.738 290.197C414.974 285.141 418.235 280.566 421.307 276.293C424.378 272.021 427.349 268.027 430.155 264.538C434.613 259.002 439.503 253.829 444.779 249.067C446.65 247.386 448.142 246.122 449.153 245.275L450.328 244.327C450.472 244.201 450.629 244.091 450.796 243.998Z" fill="#263238"/>
<path d="M402.511 306.364C402.333 305.843 402.21 305.305 402.144 304.759C401.942 303.71 401.715 302.231 401.449 300.309C400.906 296.517 400.35 291.322 399.756 285.571C399.161 279.82 398.492 274.612 397.935 270.858C397.645 268.987 397.392 267.483 397.215 266.434C397.077 265.897 397.005 265.345 397 264.791C397.218 265.297 397.375 265.828 397.468 266.371C397.746 267.407 398.062 268.899 398.416 270.782C399.136 274.574 399.844 279.731 400.438 285.495C401.032 291.259 401.538 296.315 401.93 300.246C402.119 302.016 402.284 303.52 402.41 304.721C402.508 305.263 402.542 305.814 402.511 306.364Z" fill="#263238"/>
<path d="M451.15 297.289C450.535 297.423 449.909 297.499 449.279 297.516C448.015 297.63 446.221 297.782 443.996 298.034C439.547 298.515 433.429 299.4 426.717 300.664C420.005 301.928 413.976 303.356 409.64 304.456C407.479 305.012 405.735 305.517 404.584 305.859C403.97 306.077 403.335 306.229 402.688 306.314C403.273 306.02 403.882 305.779 404.509 305.593C405.697 305.176 407.416 304.595 409.565 303.975C413.875 302.711 419.904 301.207 426.641 299.918C432.348 298.827 438.107 298.025 443.895 297.516C446.132 297.327 447.94 297.251 449.204 297.226C449.853 297.181 450.505 297.203 451.15 297.289Z" fill="#263238"/>
<path d="M381.403 360.362C381.268 360.179 381.158 359.98 381.074 359.768L380.24 358.011C379.519 356.482 378.546 354.219 377.383 351.451C375.032 345.889 372.036 338.103 368.851 329.457C365.666 320.812 362.733 313.025 360.509 307.401C359.422 304.67 358.524 302.433 357.854 300.765L357.147 298.957C357.048 298.749 356.98 298.527 356.944 298.3C357.079 298.483 357.19 298.682 357.273 298.894L358.107 300.651C358.815 302.18 359.801 304.443 360.964 307.211C363.315 312.773 366.311 320.559 369.496 329.205C372.681 337.85 375.614 345.637 377.838 351.261C378.925 353.992 379.823 356.229 380.48 357.897C380.771 358.618 381.011 359.161 381.2 359.705C381.299 359.913 381.367 360.135 381.403 360.362Z" fill="#263238"/>
<path d="M445.967 339.544C445.765 339.66 445.548 339.749 445.323 339.809L443.452 340.441L436.538 342.679C430.698 344.575 422.634 347.28 413.786 350.263C404.938 353.246 396.836 355.9 390.958 357.67C388.026 358.567 385.637 359.25 383.981 359.705L382.072 360.198C381.85 360.268 381.621 360.315 381.39 360.337C381.592 360.221 381.809 360.131 382.034 360.071L383.905 359.439L390.819 357.202C396.659 355.306 404.723 352.601 413.571 349.618C422.419 346.635 430.509 343.981 436.386 342.211C439.331 341.314 441.708 340.631 443.376 340.176L445.285 339.683C445.507 339.612 445.736 339.566 445.967 339.544Z" fill="#263238"/>
<path d="M419.627 32.9355L413.117 35.2613L410.324 26.7546C405.192 11.0683 388.836 2.73855 373.807 8.03471C358.778 13.3309 350.777 30.5339 355.908 46.2202L358.702 54.7269L352.167 57.0653C349.675 58.0318 347.652 59.9214 346.517 62.3414C345.382 64.7613 345.224 67.5254 346.075 70.0592L364.188 125.41C364.564 126.664 365.188 127.83 366.023 128.838C366.859 129.847 367.888 130.677 369.051 131.279C370.214 131.882 371.485 132.244 372.791 132.346C374.096 132.447 375.409 132.285 376.651 131.869L444.11 107.739C446.635 106.774 448.687 104.868 449.835 102.421C450.983 99.9739 451.138 97.1771 450.266 94.6187L432.14 39.2682C431.755 38.0174 431.121 36.8571 430.277 35.8566C429.433 34.8561 428.396 34.0359 427.228 33.4448C426.06 32.8538 424.785 32.5041 423.479 32.4166C422.173 32.3291 420.863 32.5056 419.627 32.9355ZM368.207 41.7835C366.823 37.7049 367.072 33.249 368.9 29.3494C370.729 25.4498 373.995 22.4091 378.016 20.8643C380.001 20.1851 382.103 19.9127 384.196 20.0634C386.288 20.2142 388.329 20.7849 390.197 21.7416C392.064 22.6983 393.72 24.0214 395.065 25.6319C396.41 27.2424 397.416 29.1073 398.025 31.1154L400.806 39.6221L370.988 50.2902L368.207 41.7835ZM406.127 90.9026L410.753 105.034C410.838 105.317 410.811 105.623 410.677 105.886C410.543 106.15 410.312 106.352 410.033 106.45L403.549 108.763C403.291 108.834 403.015 108.803 402.779 108.676C402.544 108.549 402.366 108.335 402.285 108.08L397.62 94.012C395.049 93.8719 392.581 92.9494 390.548 91.3681C388.515 89.7868 387.013 87.6222 386.244 85.164C385.145 81.9142 385.346 78.3651 386.804 75.2597C388.262 72.1544 390.866 69.7337 394.069 68.5045C395.65 67.9642 397.324 67.7477 398.991 67.8681C400.658 67.9885 402.283 68.4433 403.771 69.2052C405.258 69.9672 406.577 71.0208 407.648 72.3033C408.72 73.5857 409.522 75.0708 410.008 76.6699C410.821 79.167 410.888 81.8471 410.201 84.3818C409.514 86.9165 408.103 89.1958 406.14 90.9405L406.127 90.9026Z" fill="#1E40AF"/>
<path d="M412.827 35.11C412.827 35.2869 400.755 39.8247 385.739 45.222C370.723 50.6192 358.475 54.9548 358.411 54.8284C358.348 54.702 370.483 50.1263 385.512 44.7164C400.541 39.3064 412.763 34.9456 412.827 35.11Z" fill="#263238"/>
<path d="M427.16 37.4355C427.216 37.5452 427.262 37.6594 427.299 37.7768C427.4 38.0296 427.514 38.3583 427.665 38.7627C427.994 39.6855 428.449 40.9621 429.018 42.5547L433.872 56.6863C435.894 62.6776 438.308 69.7813 440.988 77.6687C442.252 81.625 443.743 85.7456 445.134 90.0811C445.878 92.3153 446.2 94.6686 446.082 97.0205C445.975 98.2437 445.627 99.4336 445.058 100.522C444.451 101.606 443.639 102.563 442.669 103.34C440.716 104.766 438.549 105.871 436.248 106.614L429.738 108.953L417.414 113.364L396.546 120.796L382.452 125.751L378.66 127.015L377.649 127.344C377.541 127.392 377.425 127.422 377.308 127.432C377.308 127.432 377.409 127.432 377.624 127.281L378.61 126.889L382.402 125.461L396.419 120.303L417.25 112.719L429.549 108.27L436.058 105.919C438.294 105.206 440.398 104.135 442.29 102.746C443.193 102.025 443.948 101.137 444.515 100.13C445.05 99.1235 445.372 98.0178 445.463 96.8815C445.579 94.6153 445.27 92.3475 444.552 90.1949C443.187 85.8973 441.746 81.7387 440.444 77.7824C437.815 69.8824 435.388 62.7535 433.467 56.7621C431.546 50.7707 429.928 45.9549 428.816 42.5674C428.285 40.9115 427.88 39.6223 427.552 38.6869L427.248 37.6757C427.21 37.5991 427.18 37.5186 427.16 37.4355Z" fill="#263238"/>
<path d="M391.566 20.0046C391.566 20.0046 390.896 19.6759 389.657 19.1703C387.891 18.4919 386.024 18.1159 384.133 18.058C381.331 17.9619 378.542 18.4886 375.968 19.6001C372.837 20.9841 370.161 23.2228 368.245 26.0591C366.316 28.8874 365.281 32.2296 365.274 35.6529C365.301 38.4586 365.726 41.2463 366.538 43.9321C367.196 46.2326 367.878 48.0654 368.333 49.342C368.602 49.9904 368.821 50.658 368.991 51.3391C368.631 50.7328 368.331 50.0937 368.093 49.4305C367.575 48.1665 366.829 46.3716 366.096 44.0585C365.196 41.3445 364.706 38.5114 364.642 35.6529C364.609 32.1003 365.668 28.6232 367.676 25.6926C369.659 22.7526 372.445 20.4447 375.702 19.0439C378.357 17.9263 381.233 17.4333 384.108 17.603C386.04 17.7014 387.937 18.1511 389.707 18.9302C390.181 19.1485 390.637 19.402 391.073 19.6886C391.252 19.7675 391.419 19.8742 391.566 20.0046Z" fill="#263238"/>
<path d="M392.147 69.4652C392.349 69.3429 392.56 69.2373 392.779 69.1492C393.412 68.8637 394.067 68.6311 394.738 68.454C395.804 68.1395 396.903 67.9528 398.012 67.8978C399.521 67.8167 401.031 68.0447 402.449 68.5678C405.685 69.7054 408.655 73.0044 410.121 77.4158C410.824 79.7831 410.824 82.3038 410.121 84.6711C409.341 87.2405 407.944 89.5797 406.051 91.4841L406.127 91.1428C407.808 95.7564 409.641 100.762 411.537 105.982L411.651 106.298L411.335 106.412L408.44 107.373L402.12 109.483L401.804 109.585L401.703 109.269C399.971 104.036 398.075 99.1565 396.647 94.366L396.925 94.5809C394.454 94.3756 392.098 93.4481 390.15 91.9138C388.388 90.5565 386.943 88.831 385.916 86.8578C384.989 85.108 384.527 83.1493 384.576 81.1698C384.634 79.1467 385.139 77.1616 386.055 75.3566C386.971 73.5516 388.274 71.9714 389.872 70.7292C390.53 70.1953 391.268 69.7687 392.059 69.4652C391.345 69.8888 390.653 70.3487 389.986 70.8429C388.23 72.328 386.886 74.2386 386.08 76.3919C385.388 78.0157 385.065 79.7725 385.133 81.5361C385.2 83.2997 385.658 85.0264 386.472 86.5924C387.482 88.4906 388.892 90.1468 390.605 91.4462C392.463 92.9045 394.71 93.7837 397.064 93.9742H397.279L397.342 94.1638C398.732 98.8658 400.641 103.783 402.398 109.041L401.981 108.839L408.301 106.728L411.183 105.755L410.981 106.184C409.097 100.964 407.277 95.946 405.609 91.3324V91.1428L405.76 90.9911C407.598 89.1657 408.968 86.9241 409.755 84.4562C410.425 82.1917 410.425 79.7814 409.755 77.5169C408.377 73.2698 405.533 70.0466 402.449 68.909C401.083 68.3826 399.626 68.1375 398.164 68.1886C397.072 68.2136 395.986 68.362 394.928 68.631C393.044 69.0986 392.16 69.5284 392.147 69.4652Z" fill="#263238"/>
<path d="M166.333 524.202V513.395L146.956 513.256L146.792 529.599L147.993 529.688C153.34 530.029 175.194 530.535 178.784 529.422C182.778 528.184 166.333 524.202 166.333 524.202Z" fill="#1E40AF"/>
<path d="M179.238 528.411C179.238 528.588 171.983 528.739 163.046 528.739C154.11 528.739 146.854 528.588 146.854 528.411C146.854 528.234 154.11 528.082 163.046 528.082C171.983 528.082 179.238 528.234 179.238 528.411Z" fill="#263238"/>
<path d="M166.675 526.414C166.51 526.325 166.675 525.756 167.066 525.15C167.458 524.543 167.989 524.29 168.116 524.416C168.242 524.543 167.977 525.023 167.597 525.541C167.218 526.06 166.839 526.502 166.675 526.414Z" fill="#263238"/>
<path d="M167.913 527.121C167.736 527.121 167.824 526.413 168.203 525.744C168.583 525.074 169.088 524.669 169.227 524.77C169.366 524.871 169.139 525.44 168.785 526.034C168.431 526.628 168.077 527.185 167.913 527.121Z" fill="#263238"/>
<path d="M152.695 528.36C152.619 528.36 152.328 528.133 151.911 527.652C151.402 527.035 150.835 526.468 150.218 525.959C149.61 525.474 148.887 525.156 148.119 525.036C147.525 524.96 147.146 525.036 147.108 524.96C147.07 524.884 147.437 524.619 148.132 524.568C149.049 524.549 149.944 524.853 150.66 525.428C151.33 525.974 151.896 526.638 152.328 527.387C152.619 527.943 152.771 528.31 152.695 528.36Z" fill="#263238"/>
<path d="M166.738 524.378C166.827 524.53 166.498 524.909 165.942 525.111C165.386 525.314 164.893 525.238 164.867 525.111C164.842 524.985 165.234 524.72 165.714 524.543C166.195 524.366 166.637 524.227 166.738 524.378Z" fill="#263238"/>
<path d="M166.434 523.329C166.434 523.519 165.929 523.671 165.272 523.683C164.614 523.696 164.096 523.544 164.109 523.367C164.121 523.19 164.64 523.026 165.272 523.013C165.904 523.001 166.409 523.152 166.434 523.329Z" fill="#263238"/>
<path d="M214.049 524.202V513.395L194.672 513.256L194.508 529.435L195.709 529.524C201.055 529.865 222.923 530.535 226.5 529.422C230.494 528.184 214.049 524.202 214.049 524.202Z" fill="#1E40AF"/>
<path d="M226.955 528.436C226.955 528.613 219.712 528.765 210.763 528.765C201.814 528.765 194.584 528.613 194.584 528.436C194.584 528.259 201.827 528.107 210.763 528.107C219.7 528.107 226.955 528.259 226.955 528.436Z" fill="#263238"/>
<path d="M214.391 526.414C214.239 526.325 214.391 525.756 214.783 525.15C215.175 524.543 215.705 524.29 215.832 524.416C215.958 524.543 215.693 525.023 215.314 525.541C214.934 526.06 214.555 526.502 214.391 526.414Z" fill="#263238"/>
<path d="M215.629 527.121C215.465 527.121 215.541 526.413 215.933 525.744C216.325 525.074 216.818 524.669 216.957 524.77C217.096 524.871 216.855 525.44 216.502 526.034C216.148 526.628 215.806 527.185 215.629 527.121Z" fill="#263238"/>
<path d="M200.411 528.36C200.335 528.36 200.057 528.133 199.627 527.652C199.118 527.035 198.551 526.468 197.933 525.959C197.326 525.474 196.603 525.156 195.835 525.036C195.254 524.96 194.862 525.036 194.824 524.96C194.786 524.884 195.153 524.619 195.848 524.568C196.765 524.549 197.66 524.853 198.376 525.428C199.05 525.971 199.616 526.635 200.044 527.387C200.335 527.943 200.487 528.31 200.411 528.36Z" fill="#263238"/>
<path d="M214.454 524.378C214.542 524.53 214.214 524.909 213.658 525.111C213.101 525.314 212.608 525.238 212.583 525.111C212.558 524.985 212.95 524.72 213.43 524.543C213.91 524.366 214.353 524.227 214.454 524.378Z" fill="#263238"/>
<path d="M214.176 523.329C214.176 523.519 213.67 523.671 213.013 523.683C212.356 523.696 211.85 523.544 211.863 523.367C211.875 523.19 212.381 523.026 213.013 523.013C213.645 523.001 214.176 523.152 214.176 523.329Z" fill="#263238"/>
<path d="M285.44 203.272C284.934 202.754 283.683 203.007 283.683 203.007C283.808 202.279 283.808 201.535 283.683 200.807C283.455 200.099 281.863 200.239 281.863 200.239C281.789 199.642 281.789 199.04 281.863 198.444C281.876 198.312 281.847 198.179 281.782 198.063C281.716 197.948 281.616 197.856 281.496 197.799C280.743 197.492 279.933 197.345 279.12 197.369C278.147 196.674 282.09 191.15 283.557 189.381C285.023 187.611 284.757 186.233 283.455 186.233C282.558 186.233 277.957 191.542 276.541 193.324C275.126 195.107 271.372 200.062 271.245 196.105C271.119 192.149 269.526 189.166 268.528 188.66C267.529 188.155 266.467 189.343 267.011 190.443C267.488 191.692 267.786 193.003 267.896 194.336C268.033 195.397 267.986 196.475 267.757 197.521C267.338 199.467 266.767 201.377 266.05 203.234H265.949C265.949 203.234 238.369 229.69 236.371 231.573C234.589 233.267 198.742 229.563 191.55 228.805C189.106 228.447 186.638 228.278 184.168 228.299C181.046 228.438 180.49 228.881 177.381 228.919C169.528 229.006 161.693 229.695 153.946 230.979C150.438 231.575 147.161 233.124 144.473 235.455C141.785 237.787 139.789 240.812 138.702 244.2C131.459 266.826 115.053 320.382 112.158 350.465C109.971 354.431 107.996 358.511 106.243 362.688C104.208 368.224 104.701 368.414 105.383 368.54C107.229 368.881 109.327 358.946 110.11 361.348C110.894 363.75 106.129 373.192 108.063 373.47C110.591 373.824 112.601 363.358 112.841 362.523C113.081 361.689 114.332 361.955 114.105 362.738C113.738 363.851 110.186 375.644 112.664 376.023C114.029 376.225 114.181 373.735 114.181 373.735C114.181 373.735 116.709 362.448 117.859 362.675C119.009 362.903 117.783 369.564 117.202 371.789C116.62 374.013 117.429 375.138 118.617 374.595C119.426 374.215 121.36 367.453 121.891 365.254C122.422 363.054 123.749 356.962 125.531 360.488C127.314 364.015 130.018 366.063 131.131 366.113C131.381 366.084 131.618 365.981 131.809 365.817C132.001 365.652 132.139 365.435 132.205 365.191C132.272 364.948 132.264 364.69 132.183 364.451C132.102 364.212 131.951 364.003 131.75 363.851C130.793 362.916 129.972 361.853 129.311 360.691C128.721 359.786 128.293 358.785 128.047 357.733C127.537 355.636 127.241 353.493 127.162 351.337L126.96 350.073C129.791 336.055 137.944 294.912 149.712 268.634L154.54 278.569L156.638 285.925L143.771 317.689L198.654 316.969L190.463 285.445L200.411 252.581C211.167 252.821 238.786 253.225 243.387 251.14C249.176 248.612 279.12 210.793 279.12 210.793C281.072 209.276 282.941 207.656 284.719 205.939C284.719 205.939 286.54 204.41 285.44 203.272Z" fill="#FFBE9D"/>
<path d="M141.357 294.217C142.95 288.782 151.128 261.909 151.128 261.909C151.128 261.909 155.147 283.814 154.085 286.456C153.109 288.717 151.955 290.898 150.635 292.978C141.357 307.097 142.57 314.163 142.57 314.163L198.629 312.456C198.755 304.619 194.116 286.393 193.156 283.485C192.195 280.578 195.393 271.06 195.393 271.06C195.393 271.06 201.713 264.627 201.485 261.315C201.365 258.34 200.997 255.38 200.386 252.467L234.514 253.731L233.439 230.6L184.421 225.695C182.715 230.511 167.281 228.147 167.281 228.147C150.622 228.704 149.586 231.763 142.659 237.147C135.732 242.532 124.268 288.744 124.268 288.744L141.357 294.217Z" fill="#1E40AF"/>
<path d="M174.498 288.744C173.527 288.918 172.538 288.969 171.553 288.896C169.721 288.896 167.205 288.769 164.437 288.491C161.669 288.213 159.166 287.821 157.384 287.467C156.401 287.341 155.438 287.095 154.515 286.734C155.503 286.735 156.489 286.828 157.46 287.012C159.255 287.24 161.745 287.556 164.5 287.834C167.256 288.112 169.758 288.302 171.566 288.428C172.551 288.441 173.533 288.546 174.498 288.744Z" fill="#263238"/>
<path d="M178.341 283.979C177.37 284.455 176.342 284.807 175.283 285.028C170.24 286.353 165.037 286.97 159.824 286.86C158.745 286.896 157.666 286.794 156.613 286.557C157.678 286.423 158.751 286.368 159.824 286.393C161.808 286.33 164.539 286.191 167.547 285.837C170.555 285.483 173.235 284.977 175.131 284.573C176.184 284.291 177.257 284.093 178.341 283.979Z" fill="#263238"/>
<path d="M197.2 262.718C197.175 263.681 197.043 264.639 196.808 265.574C196.48 267.331 195.974 269.733 195.33 272.362C194.685 274.991 194.066 277.418 193.509 279.061C193.286 280.002 192.955 280.914 192.523 281.779C192.594 280.818 192.772 279.868 193.054 278.948C193.535 276.976 194.078 274.7 194.685 272.21C195.292 269.72 195.873 267.445 196.353 265.473C196.524 264.524 196.809 263.599 197.2 262.718Z" fill="#263238"/>
<path d="M141.951 290.993C139.026 290.542 136.14 289.87 133.317 288.984C130.433 288.309 127.602 287.422 124.849 286.329C127.771 286.788 130.657 287.46 133.482 288.339C136.367 289.011 139.198 289.898 141.951 290.993Z" fill="#263238"/>
<path d="M200.992 252.189C200.516 252.271 200.028 252.271 199.551 252.189C198.231 252.054 196.935 251.743 195.696 251.266C193.628 250.489 191.746 249.288 190.17 247.741C188.594 246.193 187.359 244.333 186.545 242.279C185.645 240.02 185.26 237.589 185.42 235.163C185.476 233.162 186.075 231.213 187.152 229.525C187.909 228.388 189.04 227.552 190.35 227.162C190.699 227.065 191.061 227.018 191.424 227.023C191.677 227.023 191.803 227.023 191.803 227.023C191.803 227.023 191.272 227.023 190.425 227.364C189.224 227.808 188.206 228.64 187.531 229.728C185.812 232.433 185.331 237.375 187.164 241.989C188.017 244.164 189.353 246.117 191.07 247.702C192.477 248.998 194.098 250.042 195.861 250.786C197.515 251.44 199.236 251.91 200.992 252.189Z" fill="#263238"/>
<path d="M230.456 253.276C230.14 249.4 230.039 245.509 230.153 241.622C230.054 237.738 230.172 233.851 230.507 229.98C230.823 233.852 230.924 237.739 230.81 241.622C230.916 245.51 230.798 249.401 230.456 253.276Z" fill="#263238"/>
<path d="M184.092 227.111C184.231 224.292 184.522 221.107 184.522 221.107C184.522 221.107 191.499 220.336 191.917 213.131C192.334 205.926 191.917 189.305 191.917 189.305L179.277 182.833L165.246 193.868L167.408 229.892L180.275 230.713C181.259 230.741 182.213 230.377 182.928 229.701C183.644 229.026 184.063 228.094 184.092 227.111Z" fill="#FFBE9D"/>
<path d="M185.344 207.43C185.344 207.43 185.344 207.569 185.23 207.734C185.136 207.853 185.014 207.947 184.876 208.009C184.737 208.071 184.585 208.098 184.434 208.088C183.625 208.088 182.841 207.152 182.563 206.065C182.431 205.538 182.431 204.987 182.563 204.46C182.589 204.23 182.672 204.01 182.804 203.82C182.937 203.63 183.114 203.477 183.321 203.373C183.491 203.303 183.682 203.303 183.852 203.373C183.978 203.436 184.08 203.538 184.143 203.664C184.231 203.879 184.143 204.018 184.143 204.005C184.143 203.992 184.143 203.879 184.017 203.752C183.951 203.662 183.853 203.599 183.744 203.575C183.634 203.552 183.52 203.57 183.423 203.626C183.267 203.72 183.139 203.851 183.048 204.008C182.957 204.165 182.908 204.342 182.904 204.523C182.798 204.993 182.798 205.481 182.904 205.952C183.157 206.937 183.84 207.734 184.446 207.81C184.565 207.826 184.686 207.817 184.801 207.785C184.916 207.752 185.024 207.696 185.116 207.62C185.268 207.519 185.319 207.418 185.344 207.43Z" fill="#EB996E"/>
<path d="M196.252 185.412C195.279 182.1 191.752 180.457 188.542 179.547C183.65 178.156 178.367 177.55 173.589 179.307C168.811 181.064 163.072 184.148 163.072 189.419C160.253 189.191 158.636 191.656 157.523 194.715C156.812 196.578 156.386 198.539 156.259 200.529C155.905 207.431 153.971 216.961 149.497 222.017C146.969 224.836 143.468 226.783 142.027 230.296C140.763 233.343 141.42 236.958 140.244 240.042C139.195 242.759 136.882 244.693 135.188 247.057C133.463 249.739 132.447 252.815 132.237 255.996C132.027 259.178 132.629 262.361 133.988 265.246C135.355 268.057 137.281 270.56 139.648 272.603C142.014 274.646 144.772 276.185 147.752 277.128C153.657 278.924 159.953 278.985 165.891 277.305C170.347 276.239 174.505 274.178 178.051 271.275C181.679 268.313 184.171 264.186 185.104 259.596C186.001 254.439 184.56 249.193 183.486 244.061C180.124 227.844 181.084 226.997 185.331 211.943C185.432 211.678 185.483 211.4 185.559 211.134C185.635 210.869 185.672 210.742 185.723 210.54C185.844 209.945 185.907 209.34 185.913 208.733C185.292 208.963 184.619 209.012 183.972 208.873C183.325 208.734 182.731 208.414 182.26 207.949C181.787 207.453 181.458 206.839 181.307 206.171C181.156 205.504 181.188 204.808 181.4 204.157C181.698 203.445 182.143 202.804 182.705 202.275C183.266 201.746 183.933 201.341 184.661 201.085C186.064 200.504 187.568 200.201 188.946 199.556C191.866 198.166 193.888 195.284 195.266 192.263C196.399 190.169 196.749 187.74 196.252 185.412Z" fill="#263238"/>
<path d="M185.849 207.771C186.116 208.166 186.337 208.59 186.506 209.035C186.885 209.832 187.391 210.957 187.947 212.259L188.048 212.499H187.783L186.519 212.613C185.647 212.613 184.914 212.777 184.054 212.764C183.979 212.747 183.91 212.712 183.852 212.661C183.795 212.61 183.751 212.546 183.725 212.474C183.688 212.359 183.688 212.235 183.725 212.12C183.755 211.949 183.793 211.781 183.839 211.614L184.067 210.717C184.181 210.118 184.359 209.533 184.598 208.972C184.574 209.583 184.485 210.189 184.332 210.78L184.155 211.677C184.092 211.981 183.978 212.448 184.155 212.41C184.787 212.41 185.685 212.271 186.519 212.221L187.783 212.107L187.619 212.385C187.075 211.121 186.62 209.933 186.355 209.111C186.122 208.692 185.951 208.24 185.849 207.771Z" fill="#1E40AF"/>
<path d="M142.57 314.162L198.628 312.456L223.024 407.686L218.536 516.921H188.896L192.523 410.012L170.846 343.715L174.183 521.155L144.226 521.597L141.078 354.813C140.939 350.174 139.423 339.721 139.991 335.12L142.57 314.162Z" fill="#263238"/>
<path d="M178.303 345.068C177.385 345.126 176.464 345.071 175.56 344.904C173.866 344.701 171.553 344.347 169.012 343.842C166.472 343.336 164.197 342.755 162.553 342.287C161.675 342.094 160.825 341.788 160.025 341.377C160.025 341.187 164.146 342.173 169.202 343.197C174.258 344.221 178.328 344.878 178.303 345.068Z" fill="#455A64"/>
<path d="M218.233 510.929C218.233 511.106 211.521 511.258 203.242 511.258C194.963 511.258 188.238 511.106 188.238 510.929C188.238 510.752 194.95 510.601 203.242 510.601C211.534 510.601 218.233 510.74 218.233 510.929Z" fill="#455A64"/>
<path d="M173.918 516.542C173.918 516.731 167.395 516.87 159.356 516.87C151.317 516.87 144.808 516.731 144.808 516.542C144.808 516.352 151.33 516.213 159.356 516.213C167.383 516.213 173.918 516.365 173.918 516.542Z" fill="#455A64"/>
<path d="M170.05 516.087C169.873 516.087 169.089 477.32 168.293 429.503C167.496 381.686 167.029 342.894 167.193 342.894C167.357 342.894 168.166 381.648 168.95 429.49C169.734 477.333 170.239 516.087 170.05 516.087Z" fill="#455A64"/>
<path d="M214.251 510.93C214.238 510.757 214.238 510.584 214.251 510.412V508.895C214.251 507.53 214.353 505.571 214.428 503.081C214.605 498.025 214.858 490.681 215.174 481.681C215.857 463.581 216.817 438.629 217.866 411.087C217.866 410.821 217.866 410.568 217.866 410.341V410.429C211.23 383.885 205.226 359.793 200.866 342.363L195.81 321.747C195.228 319.333 194.786 317.449 194.47 316.135C194.318 315.516 194.217 315.035 194.129 314.669C194.079 314.504 194.05 314.335 194.04 314.163C194.106 314.322 194.156 314.487 194.192 314.656C194.293 315.01 194.419 315.49 194.596 316.097C194.937 317.361 195.43 319.282 196.062 321.684C197.326 326.563 199.109 333.591 201.333 342.249C205.732 359.667 211.799 383.696 218.524 410.278V410.366C218.524 410.594 218.524 410.859 218.524 411.112C217.399 438.654 216.375 463.593 215.629 481.694C215.237 490.706 214.909 497.999 214.681 503.081C214.555 505.609 214.454 507.53 214.39 508.895C214.39 509.54 214.315 510.045 214.302 510.412C214.304 510.586 214.287 510.76 214.251 510.93Z" fill="#455A64"/>
<path d="M204.582 408.116C202.453 408.816 200.259 409.303 198.034 409.57C195.304 410.037 192.978 410.366 191.929 410.417V410.164C192.27 410.265 192.447 410.328 192.447 410.379C192.447 410.429 192.232 410.379 191.879 410.379H191.12L191.879 410.151C192.864 409.861 195.19 409.38 197.92 408.887C200.11 408.412 202.341 408.154 204.582 408.116Z" fill="#455A64"/>
<path d="M204.064 411.744C202.092 411.834 200.116 411.745 198.161 411.479C196.186 411.438 194.219 411.222 192.283 410.834C196.233 410.512 200.21 410.819 204.064 411.744Z" fill="#455A64"/>
<path opacity="0.2" d="M142.33 316.172C142.994 317.025 143.83 317.728 144.784 318.235C145.738 318.743 146.788 319.043 147.866 319.117C150.124 319.385 152.408 319.342 154.654 318.991C169.127 317.386 184.459 315.907 198.629 312.456C180.288 313.48 160.911 313.139 142.57 314.162L142.381 315.73" fill="black"/>
<g opacity="0.2">
<path d="M161.227 342.021L171.566 382.141L170.846 343.715L161.227 342.021Z" fill="black"/>
</g>
</g>
<defs>
<clipPath id="clip0_1_2103">
<rect width="539.993" height="529.564" fill="white" transform="translate(0.155273 0.539062)"/>
</clipPath>
</defs>
</svg>
